<svg xmlns="http://www.w3.org/2000/svg" xmlns:xlink="http://www.w3.org/1999/xlink" width="164.821" height="32.479" viewBox="0 0 164.821 32.479">
  <defs>
    <clipPath id="clip-path">
      <rect id="Rectangle_1" data-name="Rectangle 1" width="164.821" height="32.479" fill="none"/>
    </clipPath>
  </defs>
  <g id="Logo" transform="translate(0 0)">
    <g id="Group_13" data-name="Group 13" transform="translate(0 0)" clip-path="url(#clip-path)">
      <path id="Path_6" data-name="Path 6" d="M203.435,19.212c.618-2.485,1.244-4.969,1.853-7.456q1.325-5.41,2.622-10.827c.15-.628.409-.919,1.124-.9,1.847.055,3.7.044,5.545,0a.881.881,0,0,1,1.056.819c1.28,5.545,2.6,11.082,3.906,16.62a8.043,8.043,0,0,0,.608,1.811C221.432,12.906,222.714,6.527,224,.107h7.066c-.236.969-.449,1.9-.69,2.821-2.013,7.688-4.041,15.372-6.029,23.067-.2.76-.464,1.085-1.308,1.062-2.3-.062-4.6-.022-6.992-.022L211.8,9.646l-.179.009q-1.284,5.083-2.567,10.167c-.552,2.187-1.085,4.379-1.68,6.554a1.03,1.03,0,0,1-.723.627q-3.4.073-6.8,0a1.037,1.037,0,0,1-.776-.584Q195.766,13.57,192.521.7c-.042-.165-.054-.339-.091-.582h7q1.895,9.517,3.794,19.053l.21.041" transform="translate(-101.796 -0.016)" fill="#f1f1f1"/>
      <path id="Path_7" data-name="Path 7" d="M75.409,11.6V26.946H68.83V.052c2.489,0,4.921-.026,7.35.038.256.007.6.5.733.83Q80.322,9.2,83.685,17.505c.126.309.28.607.521,1.125.763-1.858,1.454-3.513,2.125-5.176C88.007,9.3,89.69,5.149,91.329.98a1.206,1.206,0,0,1,1.34-.954c2.228.059,4.458.021,6.77.021V26.941H92.922V11.559l-.239-.053c-.258.65-.526,1.3-.771,1.95-1.586,4.225-3.182,8.447-4.734,12.685a1.118,1.118,0,0,1-1.272.907c-1.183-.059-2.372-.055-3.556,0a1.051,1.051,0,0,1-1.2-.826c-1.722-4.656-3.484-9.3-5.235-13.942-.091-.242-.2-.477-.3-.715l-.2.039" transform="translate(-36.411 -0.013)" fill="#f1f1f1"/>
      <path id="Path_8" data-name="Path 8" d="M288.371,16.946v9.985H281.8V.193c.076-.048.133-.114.189-.114,4.149-.005,8.309-.2,12.444.04,6.167.352,9.743,5.509,7.931,11.132a7.494,7.494,0,0,1-4.369,4.642c-.346.152-.694.3-1.173.505l6.19,10.613c-2.533,0-4.823.024-7.11-.033-.261-.007-.585-.43-.754-.731-1.584-2.818-3.184-5.627-4.679-8.493-.5-.968-1.133-1.061-2.1-.807m.046-4.8c1.607,0,3.1.04,4.6-.01A3.028,3.028,0,0,0,296.1,9.1a3,3,0,0,0-2.657-3.51,47.829,47.829,0,0,0-5.026-.037Z" transform="translate(-149.072 0)" fill="#f1f1f1"/>
      <path id="Path_9" data-name="Path 9" d="M144.2.1c4.191,0,8.274-.168,12.336.046a8.178,8.178,0,0,1,8.048,6.517,8.4,8.4,0,0,1-7.438,10.482c-2.07.182-4.17.03-6.372.03v9.766H144.2Zm6.575,12.163a49.759,49.759,0,0,0,5.192-.415c1.421-.258,2.078-1.446,2.086-3.079s-.635-2.888-2.013-3.135a50.365,50.365,0,0,0-5.265-.421Z" transform="translate(-76.283 -0.02)" fill="#f1f1f1"/>
      <path id="Path_10" data-name="Path 10" d="M337.254,42.876a3.6,3.6,0,1,1-3.961,3.546,3.637,3.637,0,0,1,3.961-3.546" transform="translate(-176.313 -22.681)" fill="#f1f1f1"/>
      <path id="Path_11" data-name="Path 11" d="M5.107.039h24.5L24.682,6.167H0Z" transform="translate(0 -0.021)" fill="#f1f1f1"/>
      <path id="Path_12" data-name="Path 12" d="M5.107,22.18h24.5l-4.923,6.128H0Z" transform="translate(0 -11.733)" fill="#f1f1f1"/>
      <path id="Path_13" data-name="Path 13" d="M5.107,43.958h24.5l-4.923,6.128H0Z" transform="translate(0 -23.254)" fill="#f1f1f1"/>
      <path id="Path_14" data-name="Path 14" d="M21.421,60.608l8.615-7.434H21.452Z" transform="translate(-11.332 -28.129)" fill="#f1f1f1"/>
    </g>
  </g>
</svg>
